<?xml version="1.0" encoding="utf-8"?>
<!-- Generator: Adobe Illustrator 16.0.0, SVG Export Plug-In . SVG Version: 6.00 Build 0)  -->
<!DOCTYPE svg PUBLIC "-//W3C//DTD SVG 1.1//EN" "http://www.w3.org/Graphics/SVG/1.1/DTD/svg11.dtd">
<svg version="1.1" id="Layer_1" xmlns="http://www.w3.org/2000/svg" xmlns:xlink="http://www.w3.org/1999/xlink" x="0px" y="0px"
	 width="500px" height="500px" viewBox="0 0 500 500" enable-background="new 0 0 500 500" xml:space="preserve">
<path fill="#E74C3C" d="M475.29,250.064c0,123.97-100.517,224.499-224.509,224.499c-123.981,0-224.498-100.527-224.498-224.499
	c0-123.993,100.517-224.52,224.498-224.52C374.773,25.544,475.29,126.071,475.29,250.064z"/>
<circle fill="#F7AAA6" cx="255" cy="261" r="192.199"/>
<circle fill="#E74C3C" cx="121.787" cy="261.054" r="25.508"/>
<circle fill="#E74C3C" cx="382.787" cy="287.054" r="25.508"/>
<path fill="#E74C3C" d="M188.312,358H311.9c0,0,0,55.135-61.794,55.135C188.312,413.135,188.312,358,188.312,358z"/>
<g>
	<path fill="#E74C3C" d="M95.436,226.049l163.893,7.268c0,0,10.936,101.541-86.419,97.224
		C75.554,326.224,95.436,226.049,95.436,226.049z"/>
	<path fill="#E74C3C" d="M251.979,232.992l163.891,7.268c0,0,10.936,101.541-86.418,97.224
		C232.096,333.166,251.979,232.992,251.979,232.992z"/>
</g>
</svg>
