<?xml version="1.0" encoding="utf-8"?>
<!-- Generator: Adobe Illustrator 16.0.0, SVG Export Plug-In . SVG Version: 6.00 Build 0)  -->
<!DOCTYPE svg PUBLIC "-//W3C//DTD SVG 1.1//EN" "http://www.w3.org/Graphics/SVG/1.1/DTD/svg11.dtd">
<svg version="1.1" id="Layer_1" xmlns="http://www.w3.org/2000/svg" xmlns:xlink="http://www.w3.org/1999/xlink" x="0px" y="0px"
	 width="500px" height="500px" viewBox="0 0 500 500" enable-background="new 0 0 500 500" xml:space="preserve">
<path fill="#E74C3C" d="M475.29,250.064c0,123.97-100.517,224.499-224.509,224.499c-123.981,0-224.498-100.526-224.498-224.499
	c0-123.993,100.517-224.52,224.498-224.52C374.773,25.544,475.29,126.071,475.29,250.064z"/>
<circle fill="#F7AAA6" cx="255" cy="261" r="192.199"/>
<path fill="#E74C3C" d="M310.064,416.928l-123.35-7.693c0,0,3.432-55.026,65.105-51.182
	C313.496,361.9,310.064,416.928,310.064,416.928z"/>
<path fill="#E74C3C" d="M164.365,401.602c0,0,6.543-25.873-14.419-48.276c-20.963-22.404-46.073-23.378-46.073-23.378
	s16.844-10.877,48.612,16.724C179.892,370.48,164.365,401.602,164.365,401.602z"/>
<path fill="#E74C3C" d="M350.938,350.711c31.044-28.416,48.162-17.979,48.162-17.979s-25.075,1.623-45.449,24.562
	s-13.162,48.637-13.162,48.637S324.159,375.227,350.938,350.711z"/>
<polygon fill="#E74C3C" points="84.54,255.926 154.972,256.76 155.938,266.831 85.504,265.998 "/>
<polygon fill="#E74C3C" points="348.513,271.859 419.941,291.686 417.061,301.264 345.633,281.439 "/>
</svg>
