<?xml version="1.0" encoding="utf-8"?>
<!-- Generator: Adobe Illustrator 16.0.0, SVG Export Plug-In . SVG Version: 6.00 Build 0)  -->
<!DOCTYPE svg PUBLIC "-//W3C//DTD SVG 1.1//EN" "http://www.w3.org/Graphics/SVG/1.1/DTD/svg11.dtd">
<svg version="1.1" id="Layer_1" xmlns="http://www.w3.org/2000/svg" xmlns:xlink="http://www.w3.org/1999/xlink" x="0px" y="0px"
	 width="500px" height="500px" viewBox="0 0 500 500" enable-background="new 0 0 500 500" xml:space="preserve">
<path fill="#27AE60" d="M475.29,250.064c0,123.97-100.517,224.499-224.509,224.499c-123.981,0-224.498-100.525-224.498-224.499
	c0-123.993,100.517-224.52,224.498-224.52C374.773,25.544,475.29,126.071,475.29,250.064z"/>
<circle fill="#B9F9D3" cx="250.787" cy="243.546" r="192.199"/>
<circle fill="#27AE60" cx="138.247" cy="237.045" r="25.508"/>
<circle fill="#27AE60" cx="363.327" cy="250.047" r="25.508"/>
<path fill="#27AE60" d="M301.449,406.092l-122.881-13.198c0,0,5.887-54.819,67.329-48.22
	C307.337,351.273,301.449,406.092,301.449,406.092z"/>
<path fill="#27AE60" d="M152.436,388.71c0,0,8.656-25.246-10.386-49.304c-19.042-24.058-43.986-27.1-43.986-27.1
	s17.684-9.449,47.066,20.678C170.478,358.977,152.436,388.71,152.436,388.71z"/>
<path fill="#27AE60" d="M342.572,353.393c33.282-25.757,49.482-13.942,49.482-13.942s-25.125-0.451-47.323,20.729
	c-22.197,21.18-17.132,47.384-17.132,47.384S313.861,375.612,342.572,353.393z"/>
</svg>
