<?xml version="1.0" encoding="utf-8"?>
<!-- Generator: Adobe Illustrator 16.0.0, SVG Export Plug-In . SVG Version: 6.00 Build 0)  -->
<!DOCTYPE svg PUBLIC "-//W3C//DTD SVG 1.1//EN" "http://www.w3.org/Graphics/SVG/1.1/DTD/svg11.dtd">
<svg version="1.1" id="Layer_1" xmlns="http://www.w3.org/2000/svg" xmlns:xlink="http://www.w3.org/1999/xlink" x="0px" y="0px"
	 width="500px" height="500px" viewBox="0 0 500 500" enable-background="new 0 0 500 500" xml:space="preserve">
<path fill="#F39C12" d="M475.29,250.064c0,123.97-100.517,224.499-224.509,224.499c-123.981,0-224.498-100.525-224.498-224.499
	c0-123.993,100.517-224.52,224.498-224.52C374.773,25.544,475.29,126.071,475.29,250.064z"/>
<path fill="#F9EAAC" d="M250.787,73.347c106.148,0,192.199,86.05,192.199,192.199c0,46.21-16.309,88.611-43.482,121.763
	c-35.248,43-88.778,70.437-148.717,70.437c-58.309,0-110.554-25.966-145.802-66.965c-28.919-33.638-46.397-77.395-46.397-125.234
	C58.588,159.397,144.639,73.347,250.787,73.347z"/>
<circle fill="#F39C12" cx="121.787" cy="261.054" r="25.508"/>
<circle fill="#F39C12" cx="382.787" cy="250.053" r="25.508"/>
<path fill="#F39C12" d="M327.863,392.842l-123.28,8.723c0,0-3.893-54.997,57.748-59.359
	C323.971,337.845,327.863,392.842,327.863,392.842z"/>
<path fill="#F39C12" d="M181.946,394.573c0,0,5.395-26.138-16.536-47.595c-21.931-21.456-47.059-21.321-47.059-21.321
	s16.347-11.609,49.303,14.562C196.084,362.798,181.946,394.573,181.946,394.573z"/>
<path fill="#F39C12" d="M366.092,335.5c29.759-29.758,47.322-20.086,47.322-20.086s-24.98,2.729-44.322,26.545
	s-11.004,49.17-11.004,49.17S340.42,361.172,366.092,335.5z"/>
</svg>
