<?xml version="1.0" encoding="utf-8"?>
<!-- Generator: Adobe Illustrator 16.0.0, SVG Export Plug-In . SVG Version: 6.00 Build 0)  -->
<!DOCTYPE svg PUBLIC "-//W3C//DTD SVG 1.1//EN" "http://www.w3.org/Graphics/SVG/1.1/DTD/svg11.dtd">
<svg version="1.1" id="Layer_1" xmlns="http://www.w3.org/2000/svg" xmlns:xlink="http://www.w3.org/1999/xlink" x="0px" y="0px"
	 width="500px" height="500px" viewBox="0 0 500 500" enable-background="new 0 0 500 500" xml:space="preserve">
<path fill="#27AE60" d="M475.29,250.064c0,123.97-100.517,224.499-224.509,224.499c-123.981,0-224.498-100.525-224.498-224.499
	c0-123.993,100.517-224.52,224.498-224.52C374.773,25.544,475.29,126.071,475.29,250.064z"/>
<circle fill="#B9F9D3" cx="250.787" cy="243.546" r="192.199"/>
<circle fill="#27AE60" cx="138.247" cy="237.045" r="25.508"/>
<circle fill="#27AE60" cx="363.327" cy="250.047" r="25.508"/>
<path fill="#27AE60" d="M179.218,351.723l123.223,9.504c0,0-4.238,54.972-65.851,50.219
	C174.979,406.693,179.218,351.723,179.218,351.723z"/>
<g>
	<path fill="#27AE60" d="M109.596,203.514h151.08c0,0,14.203,92.972-75.54,92.972C95.392,296.486,109.596,203.514,109.596,203.514z"
		/>
	<path fill="#27AE60" d="M253.9,203.514h151.078c0,0,14.204,92.972-75.539,92.972C239.696,296.486,253.9,203.514,253.9,203.514z"/>
</g>
</svg>
