<?xml version="1.0" encoding="utf-8"?>
<!-- Generator: Adobe Illustrator 16.0.0, SVG Export Plug-In . SVG Version: 6.00 Build 0)  -->
<!DOCTYPE svg PUBLIC "-//W3C//DTD SVG 1.1//EN" "http://www.w3.org/Graphics/SVG/1.1/DTD/svg11.dtd">
<svg version="1.1" id="Layer_1" xmlns="http://www.w3.org/2000/svg" xmlns:xlink="http://www.w3.org/1999/xlink" x="0px" y="0px"
	 width="500px" height="500px" viewBox="0 0 500 500" enable-background="new 0 0 500 500" xml:space="preserve">
<path fill="#E74C3C" d="M475.29,250.064c0,123.97-100.517,224.499-224.509,224.499c-123.981,0-224.498-100.527-224.498-224.499
	c0-123.993,100.517-224.52,224.498-224.52C374.773,25.544,475.29,126.071,475.29,250.064z"/>
<circle fill="#F7AAA6" cx="255" cy="261" r="192.199"/>
<path fill="#E74C3C" d="M188.312,358H311.9c0,0,0,55.135-61.794,55.135C188.312,413.135,188.312,358,188.312,358z"/>
<polygon fill="#E74C3C" points="84.54,255.926 154.972,256.76 155.938,266.831 85.504,265.998 "/>
<polygon fill="#E74C3C" points="348.513,271.86 419.941,291.686 417.061,301.264 345.633,281.439 "/>
</svg>
