<?xml version="1.0" encoding="utf-8"?>
<!-- Generator: Adobe Illustrator 16.0.0, SVG Export Plug-In . SVG Version: 6.00 Build 0)  -->
<!DOCTYPE svg PUBLIC "-//W3C//DTD SVG 1.1//EN" "http://www.w3.org/Graphics/SVG/1.1/DTD/svg11.dtd">
<svg version="1.1" id="Layer_1" xmlns="http://www.w3.org/2000/svg" xmlns:xlink="http://www.w3.org/1999/xlink" x="0px" y="0px"
	 width="500px" height="500px" viewBox="0 0 500 500" enable-background="new 0 0 500 500" xml:space="preserve">
<path fill="#27AE60" d="M475.29,250.064c0,123.97-100.517,224.499-224.509,224.499c-123.981,0-224.498-100.525-224.498-224.499
	c0-123.993,100.517-224.52,224.498-224.52C374.773,25.544,475.29,126.071,475.29,250.064z"/>
<circle fill="#B9F9D3" cx="250.787" cy="243.546" r="192.199"/>
<path fill="#27AE60" d="M179.218,351.723l123.223,9.504c0,0-4.238,54.972-65.851,50.219
	C174.979,406.693,179.218,351.723,179.218,351.723z"/>
<polygon fill="#27AE60" points="102.151,237.734 172.17,230.069 174.343,239.951 104.323,247.617 "/>
<polygon fill="#27AE60" points="327.757,238.843 400.808,251.445 398.896,261.264 325.846,248.663 "/>
</svg>
